<mxfile host="app.diagrams.net" modified="2023-11-02T10:33:13.662Z" agent="Mozilla/5.0 (Windows NT 10.0; Win64; x64) AppleWebKit/537.36 (KHTML, like Gecko) Chrome/118.0.0.0 Safari/537.36" etag="wSZX4aMUDCoB6n5qbAxD" version="22.0.8" type="device">
  <diagram name="Page-1" id="2YBvvXClWsGukQMizWep">
    <mxGraphModel dx="610" dy="343" grid="0" gridSize="10" guides="1" tooltips="1" connect="1" arrows="1" fold="1" page="1" pageScale="1" pageWidth="850" pageHeight="1100" math="0" shadow="0">
      <root>
        <mxCell id="0" />
        <mxCell id="1" parent="0" />
        <mxCell id="aM9ryv3xv72pqoxQDRHE-1" value=":Benutzer" style="shape=umlLifeline;perimeter=lifelinePerimeter;whiteSpace=wrap;html=1;container=0;dropTarget=0;collapsible=0;recursiveResize=0;outlineConnect=0;portConstraint=eastwest;newEdgeStyle={&quot;edgeStyle&quot;:&quot;elbowEdgeStyle&quot;,&quot;elbow&quot;:&quot;vertical&quot;,&quot;curved&quot;:0,&quot;rounded&quot;:0};" parent="1" vertex="1">
          <mxGeometry x="140" y="40" width="100" height="197" as="geometry" />
        </mxCell>
        <mxCell id="aM9ryv3xv72pqoxQDRHE-2" value="" style="html=1;points=[];perimeter=orthogonalPerimeter;outlineConnect=0;targetShapes=umlLifeline;portConstraint=eastwest;newEdgeStyle={&quot;edgeStyle&quot;:&quot;elbowEdgeStyle&quot;,&quot;elbow&quot;:&quot;vertical&quot;,&quot;curved&quot;:0,&quot;rounded&quot;:0};" parent="aM9ryv3xv72pqoxQDRHE-1" vertex="1">
          <mxGeometry x="45" y="70" width="10" height="112" as="geometry" />
        </mxCell>
        <mxCell id="aM9ryv3xv72pqoxQDRHE-5" value=":Server" style="shape=umlLifeline;perimeter=lifelinePerimeter;whiteSpace=wrap;html=1;container=0;dropTarget=0;collapsible=0;recursiveResize=0;outlineConnect=0;portConstraint=eastwest;newEdgeStyle={&quot;edgeStyle&quot;:&quot;elbowEdgeStyle&quot;,&quot;elbow&quot;:&quot;vertical&quot;,&quot;curved&quot;:0,&quot;rounded&quot;:0};" parent="1" vertex="1">
          <mxGeometry x="390" y="40" width="100" height="203" as="geometry" />
        </mxCell>
        <mxCell id="aM9ryv3xv72pqoxQDRHE-6" value="" style="html=1;points=[];perimeter=orthogonalPerimeter;outlineConnect=0;targetShapes=umlLifeline;portConstraint=eastwest;newEdgeStyle={&quot;edgeStyle&quot;:&quot;elbowEdgeStyle&quot;,&quot;elbow&quot;:&quot;vertical&quot;,&quot;curved&quot;:0,&quot;rounded&quot;:0};" parent="aM9ryv3xv72pqoxQDRHE-5" vertex="1">
          <mxGeometry x="45" y="97" width="10" height="84" as="geometry" />
        </mxCell>
        <mxCell id="Pyk5aOrfzGxjBrDpBZBE-3" value=":DB" style="shape=umlLifeline;perimeter=lifelinePerimeter;whiteSpace=wrap;html=1;container=0;dropTarget=0;collapsible=0;recursiveResize=0;outlineConnect=0;portConstraint=eastwest;newEdgeStyle={&quot;edgeStyle&quot;:&quot;elbowEdgeStyle&quot;,&quot;elbow&quot;:&quot;vertical&quot;,&quot;curved&quot;:0,&quot;rounded&quot;:0};" parent="1" vertex="1">
          <mxGeometry x="510" y="40" width="100" height="201" as="geometry" />
        </mxCell>
        <mxCell id="Pyk5aOrfzGxjBrDpBZBE-4" value="" style="html=1;points=[];perimeter=orthogonalPerimeter;outlineConnect=0;targetShapes=umlLifeline;portConstraint=eastwest;newEdgeStyle={&quot;edgeStyle&quot;:&quot;elbowEdgeStyle&quot;,&quot;elbow&quot;:&quot;vertical&quot;,&quot;curved&quot;:0,&quot;rounded&quot;:0};" parent="Pyk5aOrfzGxjBrDpBZBE-3" vertex="1">
          <mxGeometry x="45" y="105" width="10" height="76" as="geometry" />
        </mxCell>
        <mxCell id="Pyk5aOrfzGxjBrDpBZBE-10" value=":Client" style="shape=umlLifeline;perimeter=lifelinePerimeter;whiteSpace=wrap;html=1;container=0;dropTarget=0;collapsible=0;recursiveResize=0;outlineConnect=0;portConstraint=eastwest;newEdgeStyle={&quot;edgeStyle&quot;:&quot;elbowEdgeStyle&quot;,&quot;elbow&quot;:&quot;vertical&quot;,&quot;curved&quot;:0,&quot;rounded&quot;:0};" parent="1" vertex="1">
          <mxGeometry x="270" y="40" width="100" height="193" as="geometry" />
        </mxCell>
        <mxCell id="Pyk5aOrfzGxjBrDpBZBE-11" value="" style="html=1;points=[];perimeter=orthogonalPerimeter;outlineConnect=0;targetShapes=umlLifeline;portConstraint=eastwest;newEdgeStyle={&quot;edgeStyle&quot;:&quot;elbowEdgeStyle&quot;,&quot;elbow&quot;:&quot;vertical&quot;,&quot;curved&quot;:0,&quot;rounded&quot;:0};" parent="Pyk5aOrfzGxjBrDpBZBE-10" vertex="1">
          <mxGeometry x="45" y="80" width="10" height="98" as="geometry" />
        </mxCell>
        <mxCell id="Pyk5aOrfzGxjBrDpBZBE-12" style="edgeStyle=elbowEdgeStyle;curved=0;rounded=0;orthogonalLoop=1;jettySize=auto;html=1;elbow=vertical;fontSize=12;startSize=8;endSize=8;" parent="1" source="aM9ryv3xv72pqoxQDRHE-2" target="Pyk5aOrfzGxjBrDpBZBE-11" edge="1">
          <mxGeometry relative="1" as="geometry">
            <mxPoint x="100" y="130.00222222222217" as="sourcePoint" />
            <mxPoint x="310" y="130" as="targetPoint" />
            <Array as="points">
              <mxPoint x="310" y="130" />
            </Array>
          </mxGeometry>
        </mxCell>
        <mxCell id="Pyk5aOrfzGxjBrDpBZBE-16" value="&lt;font style=&quot;font-size: 10px;&quot;&gt;GET /GetFreeTables&lt;/font&gt;" style="edgeLabel;html=1;align=center;verticalAlign=middle;resizable=0;points=[];fontSize=16;" parent="Pyk5aOrfzGxjBrDpBZBE-12" vertex="1" connectable="0">
          <mxGeometry x="-0.3333" y="2" relative="1" as="geometry">
            <mxPoint x="21" y="-18" as="offset" />
          </mxGeometry>
        </mxCell>
        <mxCell id="Pyk5aOrfzGxjBrDpBZBE-13" style="edgeStyle=elbowEdgeStyle;curved=0;rounded=0;orthogonalLoop=1;jettySize=auto;html=1;elbow=horizontal;fontSize=12;startSize=8;endSize=8;" parent="1" source="Pyk5aOrfzGxjBrDpBZBE-11" edge="1">
          <mxGeometry relative="1" as="geometry">
            <mxPoint x="335" y="150.00111111111107" as="sourcePoint" />
            <mxPoint x="435" y="150.00111111111107" as="targetPoint" />
            <Array as="points">
              <mxPoint x="370" y="150" />
            </Array>
          </mxGeometry>
        </mxCell>
        <mxCell id="Pyk5aOrfzGxjBrDpBZBE-15" value="&lt;font style=&quot;font-size: 10px;&quot;&gt;HTTP Request&lt;/font&gt;" style="edgeLabel;html=1;align=center;verticalAlign=middle;resizable=0;points=[];fontSize=16;" parent="Pyk5aOrfzGxjBrDpBZBE-13" vertex="1" connectable="0">
          <mxGeometry x="-0.1022" relative="1" as="geometry">
            <mxPoint x="6" y="-20" as="offset" />
          </mxGeometry>
        </mxCell>
        <mxCell id="Pyk5aOrfzGxjBrDpBZBE-17" style="edgeStyle=elbowEdgeStyle;curved=0;rounded=0;orthogonalLoop=1;jettySize=auto;html=1;elbow=vertical;fontSize=12;startSize=8;endSize=8;" parent="1" target="Pyk5aOrfzGxjBrDpBZBE-4" edge="1">
          <mxGeometry relative="1" as="geometry">
            <mxPoint x="450" y="160.00111111111107" as="sourcePoint" />
            <mxPoint x="560" y="160.00111111111107" as="targetPoint" />
          </mxGeometry>
        </mxCell>
        <mxCell id="Pyk5aOrfzGxjBrDpBZBE-18" value="&lt;font style=&quot;font-size: 10px;&quot;&gt;SQL Query&lt;/font&gt;" style="edgeLabel;html=1;align=center;verticalAlign=middle;resizable=0;points=[];fontSize=16;" parent="Pyk5aOrfzGxjBrDpBZBE-17" vertex="1" connectable="0">
          <mxGeometry x="-0.2696" relative="1" as="geometry">
            <mxPoint x="10" y="-20" as="offset" />
          </mxGeometry>
        </mxCell>
        <mxCell id="Pyk5aOrfzGxjBrDpBZBE-19" style="edgeStyle=elbowEdgeStyle;curved=0;rounded=0;orthogonalLoop=1;jettySize=auto;html=1;elbow=vertical;fontSize=12;startSize=8;endSize=8;dashed=1;endArrow=openThin;endFill=0;" parent="1" source="Pyk5aOrfzGxjBrDpBZBE-4" target="aM9ryv3xv72pqoxQDRHE-6" edge="1">
          <mxGeometry relative="1" as="geometry">
            <Array as="points">
              <mxPoint x="498" y="198" />
            </Array>
          </mxGeometry>
        </mxCell>
        <mxCell id="Pyk5aOrfzGxjBrDpBZBE-20" value="&lt;font style=&quot;font-size: 10px;&quot;&gt;Query Result&lt;/font&gt;" style="edgeLabel;html=1;align=center;verticalAlign=middle;resizable=0;points=[];fontSize=16;" parent="Pyk5aOrfzGxjBrDpBZBE-19" vertex="1" connectable="0">
          <mxGeometry x="0.0909" relative="1" as="geometry">
            <mxPoint x="5" y="-15" as="offset" />
          </mxGeometry>
        </mxCell>
        <mxCell id="Pyk5aOrfzGxjBrDpBZBE-21" style="edgeStyle=elbowEdgeStyle;curved=0;rounded=0;orthogonalLoop=1;jettySize=auto;html=1;elbow=vertical;fontSize=12;startSize=8;endSize=8;dashed=1;endArrow=openThin;endFill=0;" parent="1" edge="1">
          <mxGeometry relative="1" as="geometry">
            <mxPoint x="434" y="202.99702127659577" as="sourcePoint" />
            <mxPoint x="324" y="202.99702127659577" as="targetPoint" />
          </mxGeometry>
        </mxCell>
        <mxCell id="Pyk5aOrfzGxjBrDpBZBE-22" value="&lt;font style=&quot;font-size: 10px;&quot;&gt;JSON Response&lt;/font&gt;" style="edgeLabel;html=1;align=center;verticalAlign=middle;resizable=0;points=[];fontSize=16;" parent="Pyk5aOrfzGxjBrDpBZBE-21" vertex="1" connectable="0">
          <mxGeometry x="0.3067" relative="1" as="geometry">
            <mxPoint x="20" y="-15" as="offset" />
          </mxGeometry>
        </mxCell>
        <mxCell id="Pyk5aOrfzGxjBrDpBZBE-23" style="edgeStyle=elbowEdgeStyle;curved=0;rounded=0;orthogonalLoop=1;jettySize=auto;html=1;elbow=vertical;fontSize=12;startSize=8;endSize=8;dashed=1;endArrow=openThin;endFill=0;" parent="1" edge="1">
          <mxGeometry relative="1" as="geometry">
            <mxPoint x="315" y="202.91489361702128" as="sourcePoint" />
            <mxPoint x="195" y="202.91489361702128" as="targetPoint" />
          </mxGeometry>
        </mxCell>
        <mxCell id="Pyk5aOrfzGxjBrDpBZBE-24" value="&lt;font style=&quot;font-size: 10px;&quot;&gt;JSON Response&lt;/font&gt;" style="edgeLabel;html=1;align=center;verticalAlign=middle;resizable=0;points=[];fontSize=16;" parent="Pyk5aOrfzGxjBrDpBZBE-23" vertex="1" connectable="0">
          <mxGeometry x="0.1316" y="-2" relative="1" as="geometry">
            <mxPoint x="8" y="-13" as="offset" />
          </mxGeometry>
        </mxCell>
        <mxCell id="Pyk5aOrfzGxjBrDpBZBE-25" value=":Benutzer" style="shape=umlLifeline;perimeter=lifelinePerimeter;whiteSpace=wrap;html=1;container=0;dropTarget=0;collapsible=0;recursiveResize=0;outlineConnect=0;portConstraint=eastwest;newEdgeStyle={&quot;edgeStyle&quot;:&quot;elbowEdgeStyle&quot;,&quot;elbow&quot;:&quot;vertical&quot;,&quot;curved&quot;:0,&quot;rounded&quot;:0};" parent="1" vertex="1">
          <mxGeometry x="140" y="268" width="100" height="272" as="geometry" />
        </mxCell>
        <mxCell id="Pyk5aOrfzGxjBrDpBZBE-26" value="" style="html=1;points=[];perimeter=orthogonalPerimeter;outlineConnect=0;targetShapes=umlLifeline;portConstraint=eastwest;newEdgeStyle={&quot;edgeStyle&quot;:&quot;elbowEdgeStyle&quot;,&quot;elbow&quot;:&quot;vertical&quot;,&quot;curved&quot;:0,&quot;rounded&quot;:0};" parent="Pyk5aOrfzGxjBrDpBZBE-25" vertex="1">
          <mxGeometry x="45" y="70" width="10" height="182" as="geometry" />
        </mxCell>
        <mxCell id="Pyk5aOrfzGxjBrDpBZBE-27" value=":Server" style="shape=umlLifeline;perimeter=lifelinePerimeter;whiteSpace=wrap;html=1;container=0;dropTarget=0;collapsible=0;recursiveResize=0;outlineConnect=0;portConstraint=eastwest;newEdgeStyle={&quot;edgeStyle&quot;:&quot;elbowEdgeStyle&quot;,&quot;elbow&quot;:&quot;vertical&quot;,&quot;curved&quot;:0,&quot;rounded&quot;:0};" parent="1" vertex="1">
          <mxGeometry x="390" y="268" width="100" height="273" as="geometry" />
        </mxCell>
        <mxCell id="Pyk5aOrfzGxjBrDpBZBE-28" value="" style="html=1;points=[];perimeter=orthogonalPerimeter;outlineConnect=0;targetShapes=umlLifeline;portConstraint=eastwest;newEdgeStyle={&quot;edgeStyle&quot;:&quot;elbowEdgeStyle&quot;,&quot;elbow&quot;:&quot;vertical&quot;,&quot;curved&quot;:0,&quot;rounded&quot;:0};" parent="Pyk5aOrfzGxjBrDpBZBE-27" vertex="1">
          <mxGeometry x="45" y="80" width="10" height="170" as="geometry" />
        </mxCell>
        <mxCell id="Pyk5aOrfzGxjBrDpBZBE-29" value=":DB" style="shape=umlLifeline;perimeter=lifelinePerimeter;whiteSpace=wrap;html=1;container=0;dropTarget=0;collapsible=0;recursiveResize=0;outlineConnect=0;portConstraint=eastwest;newEdgeStyle={&quot;edgeStyle&quot;:&quot;elbowEdgeStyle&quot;,&quot;elbow&quot;:&quot;vertical&quot;,&quot;curved&quot;:0,&quot;rounded&quot;:0};" parent="1" vertex="1">
          <mxGeometry x="510" y="268" width="100" height="274" as="geometry" />
        </mxCell>
        <mxCell id="Pyk5aOrfzGxjBrDpBZBE-30" value="" style="html=1;points=[];perimeter=orthogonalPerimeter;outlineConnect=0;targetShapes=umlLifeline;portConstraint=eastwest;newEdgeStyle={&quot;edgeStyle&quot;:&quot;elbowEdgeStyle&quot;,&quot;elbow&quot;:&quot;vertical&quot;,&quot;curved&quot;:0,&quot;rounded&quot;:0};" parent="Pyk5aOrfzGxjBrDpBZBE-29" vertex="1">
          <mxGeometry x="45" y="103" width="10" height="147" as="geometry" />
        </mxCell>
        <mxCell id="Pyk5aOrfzGxjBrDpBZBE-31" value=":Client" style="shape=umlLifeline;perimeter=lifelinePerimeter;whiteSpace=wrap;html=1;container=0;dropTarget=0;collapsible=0;recursiveResize=0;outlineConnect=0;portConstraint=eastwest;newEdgeStyle={&quot;edgeStyle&quot;:&quot;elbowEdgeStyle&quot;,&quot;elbow&quot;:&quot;vertical&quot;,&quot;curved&quot;:0,&quot;rounded&quot;:0};" parent="1" vertex="1">
          <mxGeometry x="270" y="268" width="100" height="273" as="geometry" />
        </mxCell>
        <mxCell id="Pyk5aOrfzGxjBrDpBZBE-32" value="" style="html=1;points=[];perimeter=orthogonalPerimeter;outlineConnect=0;targetShapes=umlLifeline;portConstraint=eastwest;newEdgeStyle={&quot;edgeStyle&quot;:&quot;elbowEdgeStyle&quot;,&quot;elbow&quot;:&quot;vertical&quot;,&quot;curved&quot;:0,&quot;rounded&quot;:0};" parent="Pyk5aOrfzGxjBrDpBZBE-31" vertex="1">
          <mxGeometry x="45" y="80" width="10" height="170" as="geometry" />
        </mxCell>
        <mxCell id="Pyk5aOrfzGxjBrDpBZBE-33" style="edgeStyle=elbowEdgeStyle;curved=0;rounded=0;orthogonalLoop=1;jettySize=auto;html=1;elbow=vertical;fontSize=12;startSize=8;endSize=8;" parent="1" source="Pyk5aOrfzGxjBrDpBZBE-26" target="Pyk5aOrfzGxjBrDpBZBE-32" edge="1">
          <mxGeometry relative="1" as="geometry">
            <mxPoint x="100" y="358.00222222222214" as="sourcePoint" />
            <mxPoint x="310" y="358" as="targetPoint" />
            <Array as="points">
              <mxPoint x="310" y="358" />
            </Array>
          </mxGeometry>
        </mxCell>
        <mxCell id="Pyk5aOrfzGxjBrDpBZBE-34" value="&lt;font style=&quot;font-size: 10px;&quot;&gt;POST /ReserveTable&lt;/font&gt;" style="edgeLabel;html=1;align=center;verticalAlign=middle;resizable=0;points=[];fontSize=16;" parent="Pyk5aOrfzGxjBrDpBZBE-33" vertex="1" connectable="0">
          <mxGeometry x="-0.3333" y="2" relative="1" as="geometry">
            <mxPoint x="21" y="-18" as="offset" />
          </mxGeometry>
        </mxCell>
        <mxCell id="Pyk5aOrfzGxjBrDpBZBE-35" style="edgeStyle=elbowEdgeStyle;curved=0;rounded=0;orthogonalLoop=1;jettySize=auto;html=1;elbow=horizontal;fontSize=12;startSize=8;endSize=8;" parent="1" source="Pyk5aOrfzGxjBrDpBZBE-32" edge="1">
          <mxGeometry relative="1" as="geometry">
            <mxPoint x="335" y="378.0011111111111" as="sourcePoint" />
            <mxPoint x="435" y="378.0011111111111" as="targetPoint" />
            <Array as="points">
              <mxPoint x="370" y="378" />
            </Array>
          </mxGeometry>
        </mxCell>
        <mxCell id="Pyk5aOrfzGxjBrDpBZBE-36" value="&lt;font style=&quot;font-size: 10px;&quot;&gt;HTTP Request&lt;/font&gt;" style="edgeLabel;html=1;align=center;verticalAlign=middle;resizable=0;points=[];fontSize=16;" parent="Pyk5aOrfzGxjBrDpBZBE-35" vertex="1" connectable="0">
          <mxGeometry x="-0.1022" relative="1" as="geometry">
            <mxPoint x="6" y="-20" as="offset" />
          </mxGeometry>
        </mxCell>
        <mxCell id="Pyk5aOrfzGxjBrDpBZBE-37" style="edgeStyle=elbowEdgeStyle;curved=0;rounded=0;orthogonalLoop=1;jettySize=auto;html=1;elbow=vertical;fontSize=12;startSize=8;endSize=8;" parent="1" target="Pyk5aOrfzGxjBrDpBZBE-30" edge="1">
          <mxGeometry relative="1" as="geometry">
            <mxPoint x="450" y="388.0011111111111" as="sourcePoint" />
            <mxPoint x="560" y="388.0011111111111" as="targetPoint" />
          </mxGeometry>
        </mxCell>
        <mxCell id="Pyk5aOrfzGxjBrDpBZBE-38" value="&lt;font style=&quot;font-size: 10px;&quot;&gt;SQL Query&lt;/font&gt;" style="edgeLabel;html=1;align=center;verticalAlign=middle;resizable=0;points=[];fontSize=16;" parent="Pyk5aOrfzGxjBrDpBZBE-37" vertex="1" connectable="0">
          <mxGeometry x="-0.2696" relative="1" as="geometry">
            <mxPoint x="10" y="-20" as="offset" />
          </mxGeometry>
        </mxCell>
        <mxCell id="Pyk5aOrfzGxjBrDpBZBE-39" style="edgeStyle=elbowEdgeStyle;curved=0;rounded=0;orthogonalLoop=1;jettySize=auto;html=1;elbow=vertical;fontSize=12;startSize=8;endSize=8;dashed=1;endArrow=openThin;endFill=0;" parent="1" edge="1">
          <mxGeometry relative="1" as="geometry">
            <mxPoint x="556" y="498.00333333333333" as="sourcePoint" />
            <mxPoint x="446" y="498.00333333333333" as="targetPoint" />
          </mxGeometry>
        </mxCell>
        <mxCell id="Pyk5aOrfzGxjBrDpBZBE-40" value="&lt;font style=&quot;font-size: 10px;&quot;&gt;Query Result&lt;/font&gt;" style="edgeLabel;html=1;align=center;verticalAlign=middle;resizable=0;points=[];fontSize=16;" parent="Pyk5aOrfzGxjBrDpBZBE-39" vertex="1" connectable="0">
          <mxGeometry x="0.0909" relative="1" as="geometry">
            <mxPoint x="5" y="-15" as="offset" />
          </mxGeometry>
        </mxCell>
        <mxCell id="Pyk5aOrfzGxjBrDpBZBE-41" style="edgeStyle=elbowEdgeStyle;curved=0;rounded=0;orthogonalLoop=1;jettySize=auto;html=1;elbow=vertical;fontSize=12;startSize=8;endSize=8;dashed=1;endArrow=openThin;endFill=0;" parent="1" source="Pyk5aOrfzGxjBrDpBZBE-28" target="Pyk5aOrfzGxjBrDpBZBE-32" edge="1">
          <mxGeometry relative="1" as="geometry">
            <Array as="points">
              <mxPoint x="380" y="498" />
              <mxPoint x="390" y="468" />
            </Array>
          </mxGeometry>
        </mxCell>
        <mxCell id="Pyk5aOrfzGxjBrDpBZBE-42" value="&lt;font style=&quot;font-size: 10px;&quot;&gt;JSON Response&lt;/font&gt;" style="edgeLabel;html=1;align=center;verticalAlign=middle;resizable=0;points=[];fontSize=16;" parent="Pyk5aOrfzGxjBrDpBZBE-41" vertex="1" connectable="0">
          <mxGeometry x="0.3067" relative="1" as="geometry">
            <mxPoint x="20" y="-15" as="offset" />
          </mxGeometry>
        </mxCell>
        <mxCell id="Pyk5aOrfzGxjBrDpBZBE-43" style="edgeStyle=elbowEdgeStyle;curved=0;rounded=0;orthogonalLoop=1;jettySize=auto;html=1;elbow=vertical;fontSize=12;startSize=8;endSize=8;dashed=1;endArrow=openThin;endFill=0;" parent="1" source="Pyk5aOrfzGxjBrDpBZBE-32" target="Pyk5aOrfzGxjBrDpBZBE-26" edge="1">
          <mxGeometry relative="1" as="geometry">
            <Array as="points">
              <mxPoint x="270" y="498" />
            </Array>
          </mxGeometry>
        </mxCell>
        <mxCell id="Pyk5aOrfzGxjBrDpBZBE-44" value="&lt;font style=&quot;font-size: 10px;&quot;&gt;JSON Response&lt;/font&gt;" style="edgeLabel;html=1;align=center;verticalAlign=middle;resizable=0;points=[];fontSize=16;" parent="Pyk5aOrfzGxjBrDpBZBE-43" vertex="1" connectable="0">
          <mxGeometry x="0.1316" y="-2" relative="1" as="geometry">
            <mxPoint x="8" y="-13" as="offset" />
          </mxGeometry>
        </mxCell>
        <mxCell id="Pyk5aOrfzGxjBrDpBZBE-49" style="edgeStyle=elbowEdgeStyle;curved=0;rounded=0;orthogonalLoop=1;jettySize=auto;html=1;elbow=vertical;fontSize=12;startSize=8;endSize=8;dashed=1;endArrow=openThin;endFill=0;" parent="1" edge="1">
          <mxGeometry relative="1" as="geometry">
            <mxPoint x="555" y="422.9233333333333" as="sourcePoint" />
            <mxPoint x="445" y="422.9233333333333" as="targetPoint" />
          </mxGeometry>
        </mxCell>
        <mxCell id="Pyk5aOrfzGxjBrDpBZBE-50" value="&lt;font style=&quot;font-size: 10px;&quot;&gt;Query Result&lt;/font&gt;" style="edgeLabel;html=1;align=center;verticalAlign=middle;resizable=0;points=[];fontSize=16;" parent="Pyk5aOrfzGxjBrDpBZBE-49" vertex="1" connectable="0">
          <mxGeometry x="0.0909" relative="1" as="geometry">
            <mxPoint x="5" y="-15" as="offset" />
          </mxGeometry>
        </mxCell>
        <mxCell id="Pyk5aOrfzGxjBrDpBZBE-51" style="edgeStyle=elbowEdgeStyle;curved=0;rounded=0;orthogonalLoop=1;jettySize=auto;html=1;elbow=vertical;fontSize=12;startSize=8;endSize=8;" parent="1" edge="1">
          <mxGeometry relative="1" as="geometry">
            <mxPoint x="448" y="461.0011111111111" as="sourcePoint" />
            <mxPoint x="553" y="461" as="targetPoint" />
          </mxGeometry>
        </mxCell>
        <mxCell id="Pyk5aOrfzGxjBrDpBZBE-52" value="&lt;font style=&quot;font-size: 10px;&quot;&gt;SQL Insert&lt;/font&gt;" style="edgeLabel;html=1;align=center;verticalAlign=middle;resizable=0;points=[];fontSize=16;" parent="Pyk5aOrfzGxjBrDpBZBE-51" vertex="1" connectable="0">
          <mxGeometry x="-0.2696" relative="1" as="geometry">
            <mxPoint x="10" y="-15" as="offset" />
          </mxGeometry>
        </mxCell>
      </root>
    </mxGraphModel>
  </diagram>
</mxfile>
